<svg width="282" height="82" viewBox="0 0 282 82" fill="none" xmlns="http://www.w3.org/2000/svg">
<path d="M62.75 0.75H18.75C8.80887 0.75 0.75 8.80887 0.75 18.75V62.75C0.75 72.6911 8.80887 80.75 18.75 80.75H62.75C72.6911 80.75 80.75 72.6911 80.75 62.75V18.75C80.75 8.80887 72.6911 0.75 62.75 0.75Z" stroke="url(#paint0_linear_2024_201)" stroke-opacity="0.7" stroke-width="1.5"/>
<path d="M40.75 49.75C45.7206 49.75 49.75 45.7206 49.75 40.75C49.75 35.7794 45.7206 31.75 40.75 31.75C35.7794 31.75 31.75 35.7794 31.75 40.75C31.75 45.7206 35.7794 49.75 40.75 49.75Z" fill="url(#paint1_linear_2024_201)"/>
<path opacity="0.9" d="M40.75 19.25C43.2353 19.25 45.25 17.2353 45.25 14.75C45.25 12.2647 43.2353 10.25 40.75 10.25C38.2647 10.25 36.25 12.2647 36.25 14.75C36.25 17.2353 38.2647 19.25 40.75 19.25Z" fill="#F6339A"/>
<path opacity="0.9" d="M62.75 32.25C65.2353 32.25 67.25 30.2353 67.25 27.75C67.25 25.2647 65.2353 23.25 62.75 23.25C60.2647 23.25 58.25 25.2647 58.25 27.75C58.25 30.2353 60.2647 32.25 62.75 32.25Z" fill="#C833EE"/>
<path opacity="0.9" d="M62.75 58.25C65.2353 58.25 67.25 56.2353 67.25 53.75C67.25 51.2647 65.2353 49.25 62.75 49.25C60.2647 49.25 58.25 51.2647 58.25 53.75C58.25 56.2353 60.2647 58.25 62.75 58.25Z" fill="#B833F6"/>
<path opacity="0.9" d="M40.75 71.25C43.2353 71.25 45.25 69.2353 45.25 66.75C45.25 64.2647 43.2353 62.25 40.75 62.25C38.2647 62.25 36.25 64.2647 36.25 66.75C36.25 69.2353 38.2647 71.25 40.75 71.25Z" fill="#F6339A"/>
<path opacity="0.9" d="M18.75 58.25C21.2353 58.25 23.25 56.2353 23.25 53.75C23.25 51.2647 21.2353 49.25 18.75 49.25C16.2647 49.25 14.25 51.2647 14.25 53.75C14.25 56.2353 16.2647 58.25 18.75 58.25Z" fill="#C833EE"/>
<path opacity="0.9" d="M18.75 32.25C21.2353 32.25 23.25 30.2353 23.25 27.75C23.25 25.2647 21.2353 23.25 18.75 23.25C16.2647 23.25 14.25 25.2647 14.25 27.75C14.25 30.2353 16.2647 32.25 18.75 32.25Z" fill="#B833F6"/>
<path d="M40.75 31.75V19.25" stroke="url(#paint2_linear_2024_201)" stroke-opacity="0.9" stroke-width="1.2"/>
<path d="M48.25 35.75L58.75 30.75" stroke="url(#paint3_linear_2024_201)" stroke-opacity="0.9" stroke-width="1.2"/>
<path d="M48.25 45.75L58.75 50.75" stroke="url(#paint4_linear_2024_201)" stroke-opacity="0.9" stroke-width="1.2"/>
<path d="M33.25 45.75L22.75 50.75" stroke="url(#paint5_linear_2024_201)" stroke-opacity="0.9" stroke-width="1.2"/>
<path d="M33.25 35.75L22.75 30.75" stroke="url(#paint6_linear_2024_201)" stroke-opacity="0.9" stroke-width="1.2"/>
<path d="M40.75 14.75L62.75 27.75" stroke="#F6339A" stroke-opacity="0.35" stroke-width="0.7"/>
<path d="M62.75 27.75V53.75" stroke="#D833CC" stroke-opacity="0.35" stroke-width="0.7"/>
<path d="M62.75 53.75L40.75 66.75" stroke="#B833F6" stroke-opacity="0.35" stroke-width="0.7"/>
<path d="M40.75 66.75L18.75 53.75" stroke="#F6339A" stroke-opacity="0.35" stroke-width="0.7"/>
<path d="M18.75 53.75V27.75" stroke="#D833CC" stroke-opacity="0.35" stroke-width="0.7"/>
<path d="M18.75 27.75L40.75 14.75" stroke="#B833F6" stroke-opacity="0.35" stroke-width="0.7"/>
<path d="M40.7502 16.5499C41.7443 16.5499 42.5502 15.7441 42.5502 14.75C42.5502 13.7558 41.7443 12.95 40.7502 12.95C39.7561 12.95 38.9502 13.7558 38.9502 14.75C38.9502 15.7441 39.7561 16.5499 40.7502 16.5499Z" fill="white" fill-opacity="0.7"/>
<path d="M62.7502 55.55C63.7443 55.55 64.5502 54.7441 64.5502 53.75C64.5502 52.7558 63.7443 51.95 62.7502 51.95C61.7561 51.95 60.9502 52.7558 60.9502 53.75C60.9502 54.7441 61.7561 55.55 62.7502 55.55Z" fill="white" fill-opacity="0.5"/>
<path d="M18.7502 29.5499C19.7443 29.5499 20.5502 28.7441 20.5502 27.75C20.5502 26.7558 19.7443 25.95 18.7502 25.95C17.7561 25.95 16.9502 26.7558 16.9502 27.75C16.9502 28.7441 17.7561 29.5499 18.7502 29.5499Z" fill="white" fill-opacity="0.5"/>
<path d="M40.75 49.75V62.25" stroke="url(#paint7_linear_2024_201)" stroke-opacity="0.9" stroke-width="1.2"/>
<path d="M109.266 55.544C107.334 55.544 105.598 55.208 104.058 54.536C102.546 53.836 101.356 52.884 100.488 51.68C99.62 50.448 99.172 49.034 99.144 47.438H103.218C103.358 48.81 103.918 49.972 104.898 50.924C105.906 51.848 107.362 52.31 109.266 52.31C111.086 52.31 112.514 51.862 113.55 50.966C114.614 50.042 115.146 48.866 115.146 47.438C115.146 46.318 114.838 45.408 114.222 44.708C113.606 44.008 112.836 43.476 111.912 43.112C110.988 42.748 109.742 42.356 108.174 41.936C106.242 41.432 104.688 40.928 103.512 40.424C102.364 39.92 101.37 39.136 100.53 38.072C99.718 36.98 99.312 35.524 99.312 33.704C99.312 32.108 99.718 30.694 100.53 29.462C101.342 28.23 102.476 27.278 103.932 26.606C105.416 25.934 107.11 25.598 109.014 25.598C111.758 25.598 113.998 26.284 115.734 27.656C117.498 29.028 118.492 30.848 118.716 33.116H114.516C114.376 31.996 113.788 31.016 112.752 30.176C111.716 29.308 110.344 28.874 108.636 28.874C107.04 28.874 105.738 29.294 104.73 30.134C103.722 30.946 103.218 32.094 103.218 33.578C103.218 34.642 103.512 35.51 104.1 36.182C104.716 36.854 105.458 37.372 106.326 37.736C107.222 38.072 108.468 38.464 110.064 38.912C111.996 39.444 113.55 39.976 114.726 40.508C115.902 41.012 116.91 41.81 117.75 42.902C118.59 43.966 119.01 45.422 119.01 47.27C119.01 48.698 118.632 50.042 117.876 51.302C117.12 52.562 116 53.584 114.516 54.368C113.032 55.152 111.282 55.544 109.266 55.544ZM135.848 31.814C138.648 31.814 140.916 32.668 142.652 34.376C144.388 36.056 145.256 38.492 145.256 41.684V55.25H141.476V42.23C141.476 39.934 140.902 38.184 139.754 36.98C138.606 35.748 137.038 35.132 135.05 35.132C133.034 35.132 131.424 35.762 130.22 37.022C129.044 38.282 128.456 40.116 128.456 42.524V55.25H124.634V32.234H128.456V35.51C129.212 34.334 130.234 33.424 131.522 32.78C132.838 32.136 134.28 31.814 135.848 31.814ZM150.072 43.658C150.072 41.306 150.548 39.248 151.5 37.484C152.452 35.692 153.754 34.306 155.406 33.326C157.086 32.346 158.948 31.856 160.992 31.856C163.008 31.856 164.758 32.29 166.242 33.158C167.726 34.026 168.832 35.118 169.56 36.434V32.234H173.424V55.25H169.56V50.966C168.804 52.31 167.67 53.43 166.158 54.326C164.674 55.194 162.938 55.628 160.95 55.628C158.906 55.628 157.058 55.124 155.406 54.116C153.754 53.108 152.452 51.694 151.5 49.874C150.548 48.054 150.072 45.982 150.072 43.658ZM169.56 43.7C169.56 41.964 169.21 40.452 168.51 39.164C167.81 37.876 166.858 36.896 165.654 36.224C164.478 35.524 163.176 35.174 161.748 35.174C160.32 35.174 159.018 35.51 157.842 36.182C156.666 36.854 155.728 37.834 155.028 39.122C154.328 40.41 153.978 41.922 153.978 43.658C153.978 45.422 154.328 46.962 155.028 48.278C155.728 49.566 156.666 50.56 157.842 51.26C159.018 51.932 160.32 52.268 161.748 52.268C163.176 52.268 164.478 51.932 165.654 51.26C166.858 50.56 167.81 49.566 168.51 48.278C169.21 46.962 169.56 45.436 169.56 43.7ZM183.704 36.476C184.46 35.16 185.58 34.068 187.064 33.2C188.576 32.304 190.326 31.856 192.314 31.856C194.358 31.856 196.206 32.346 197.858 33.326C199.538 34.306 200.854 35.692 201.806 37.484C202.758 39.248 203.234 41.306 203.234 43.658C203.234 45.982 202.758 48.054 201.806 49.874C200.854 51.694 199.538 53.108 197.858 54.116C196.206 55.124 194.358 55.628 192.314 55.628C190.354 55.628 188.618 55.194 187.106 54.326C185.622 53.43 184.488 52.324 183.704 51.008V66.17H179.882V32.234H183.704V36.476ZM199.328 43.658C199.328 41.922 198.978 40.41 198.278 39.122C197.578 37.834 196.626 36.854 195.422 36.182C194.246 35.51 192.944 35.174 191.516 35.174C190.116 35.174 188.814 35.524 187.61 36.224C186.434 36.896 185.482 37.89 184.754 39.206C184.054 40.494 183.704 41.992 183.704 43.7C183.704 45.436 184.054 46.962 184.754 48.278C185.482 49.566 186.434 50.56 187.61 51.26C188.814 51.932 190.116 52.268 191.516 52.268C192.944 52.268 194.246 51.932 195.422 51.26C196.626 50.56 197.578 49.566 198.278 48.278C198.978 46.962 199.328 45.422 199.328 43.658ZM212.087 36.476C212.843 35.16 213.963 34.068 215.447 33.2C216.959 32.304 218.709 31.856 220.697 31.856C222.741 31.856 224.589 32.346 226.241 33.326C227.921 34.306 229.237 35.692 230.189 37.484C231.141 39.248 231.617 41.306 231.617 43.658C231.617 45.982 231.141 48.054 230.189 49.874C229.237 51.694 227.921 53.108 226.241 54.116C224.589 55.124 222.741 55.628 220.697 55.628C218.737 55.628 217.001 55.194 215.489 54.326C214.005 53.43 212.871 52.324 212.087 51.008V66.17H208.265V32.234H212.087V36.476ZM227.711 43.658C227.711 41.922 227.361 40.41 226.661 39.122C225.961 37.834 225.009 36.854 223.805 36.182C222.629 35.51 221.327 35.174 219.899 35.174C218.499 35.174 217.197 35.524 215.993 36.224C214.817 36.896 213.865 37.89 213.137 39.206C212.437 40.494 212.087 41.992 212.087 43.7C212.087 45.436 212.437 46.962 213.137 48.278C213.865 49.566 214.817 50.56 215.993 51.26C217.197 51.932 218.499 52.268 219.899 52.268C221.327 52.268 222.629 51.932 223.805 51.26C225.009 50.56 225.961 49.566 226.661 48.278C227.361 46.962 227.711 45.422 227.711 43.658ZM238.622 28.496C237.894 28.496 237.278 28.244 236.774 27.74C236.27 27.236 236.018 26.62 236.018 25.892C236.018 25.164 236.27 24.548 236.774 24.044C237.278 23.54 237.894 23.288 238.622 23.288C239.322 23.288 239.91 23.54 240.386 24.044C240.89 24.548 241.142 25.164 241.142 25.892C241.142 26.62 240.89 27.236 240.386 27.74C239.91 28.244 239.322 28.496 238.622 28.496ZM240.47 32.234V55.25H236.648V32.234H240.47ZM256.35 35.384H251.52V55.25H247.698V35.384H244.716V32.234H247.698V30.596C247.698 28.02 248.356 26.144 249.672 24.968C251.016 23.764 253.158 23.162 256.098 23.162V26.354C254.418 26.354 253.228 26.69 252.528 27.362C251.856 28.006 251.52 29.084 251.52 30.596V32.234H256.35V35.384ZM280.63 32.234L266.77 66.086H262.822L267.358 54.998L258.076 32.234H262.318L269.542 50.882L276.682 32.234H280.63Z" fill="#F8FAFC"/>
<defs>
<linearGradient id="paint0_linear_2024_201" x1="0.75" y1="0.75" x2="80.75" y2="80.75" gradientUnits="userSpaceOnUse">
<stop stop-color="#F6339A"/>
<stop offset="1" stop-color="#B833F6"/>
</linearGradient>
<linearGradient id="paint1_linear_2024_201" x1="31.75" y1="31.75" x2="49.75" y2="49.75" gradientUnits="userSpaceOnUse">
<stop stop-color="#F6339A"/>
<stop offset="1" stop-color="#B833F6"/>
</linearGradient>
<linearGradient id="paint2_linear_2024_201" x1="-nan" y1="-nan" x2="-nan" y2="-nan" gradientUnits="userSpaceOnUse">
<stop stop-color="#F6339A"/>
<stop offset="1" stop-color="#B833F6"/>
</linearGradient>
<linearGradient id="paint3_linear_2024_201" x1="48.25" y1="30.75" x2="52.1317" y2="38.9016" gradientUnits="userSpaceOnUse">
<stop stop-color="#F6339A"/>
<stop offset="1" stop-color="#B833F6"/>
</linearGradient>
<linearGradient id="paint4_linear_2024_201" x1="48.25" y1="45.75" x2="52.1317" y2="53.9016" gradientUnits="userSpaceOnUse">
<stop stop-color="#F6339A"/>
<stop offset="1" stop-color="#B833F6"/>
</linearGradient>
<linearGradient id="paint5_linear_2024_201" x1="22.75" y1="45.75" x2="26.6317" y2="53.9016" gradientUnits="userSpaceOnUse">
<stop stop-color="#F6339A"/>
<stop offset="1" stop-color="#B833F6"/>
</linearGradient>
<linearGradient id="paint6_linear_2024_201" x1="22.75" y1="30.75" x2="26.6317" y2="38.9016" gradientUnits="userSpaceOnUse">
<stop stop-color="#F6339A"/>
<stop offset="1" stop-color="#B833F6"/>
</linearGradient>
<linearGradient id="paint7_linear_2024_201" x1="-nan" y1="-nan" x2="-nan" y2="-nan" gradientUnits="userSpaceOnUse">
<stop stop-color="#F6339A"/>
<stop offset="1" stop-color="#B833F6"/>
</linearGradient>
</defs>
</svg>
