<svg width="82" height="82" viewBox="0 0 82 82" fill="none" xmlns="http://www.w3.org/2000/svg">
<path d="M62.75 0.75H18.75C8.80887 0.75 0.75 8.80887 0.75 18.75V62.75C0.75 72.6911 8.80887 80.75 18.75 80.75H62.75C72.6911 80.75 80.75 72.6911 80.75 62.75V18.75C80.75 8.80887 72.6911 0.75 62.75 0.75Z" stroke="url(#paint0_linear_2020_200)" stroke-opacity="0.7" stroke-width="1.5"/>
<path d="M40.75 49.75C45.7206 49.75 49.75 45.7206 49.75 40.75C49.75 35.7794 45.7206 31.75 40.75 31.75C35.7794 31.75 31.75 35.7794 31.75 40.75C31.75 45.7206 35.7794 49.75 40.75 49.75Z" fill="url(#paint1_linear_2020_200)"/>
<path opacity="0.9" d="M40.75 19.25C43.2353 19.25 45.25 17.2353 45.25 14.75C45.25 12.2647 43.2353 10.25 40.75 10.25C38.2647 10.25 36.25 12.2647 36.25 14.75C36.25 17.2353 38.2647 19.25 40.75 19.25Z" fill="#F6339A"/>
<path opacity="0.9" d="M62.75 32.25C65.2353 32.25 67.25 30.2353 67.25 27.75C67.25 25.2647 65.2353 23.25 62.75 23.25C60.2647 23.25 58.25 25.2647 58.25 27.75C58.25 30.2353 60.2647 32.25 62.75 32.25Z" fill="#C833EE"/>
<path opacity="0.9" d="M62.75 58.25C65.2353 58.25 67.25 56.2353 67.25 53.75C67.25 51.2647 65.2353 49.25 62.75 49.25C60.2647 49.25 58.25 51.2647 58.25 53.75C58.25 56.2353 60.2647 58.25 62.75 58.25Z" fill="#B833F6"/>
<path opacity="0.9" d="M40.75 71.25C43.2353 71.25 45.25 69.2353 45.25 66.75C45.25 64.2647 43.2353 62.25 40.75 62.25C38.2647 62.25 36.25 64.2647 36.25 66.75C36.25 69.2353 38.2647 71.25 40.75 71.25Z" fill="#F6339A"/>
<path opacity="0.9" d="M18.75 58.25C21.2353 58.25 23.25 56.2353 23.25 53.75C23.25 51.2647 21.2353 49.25 18.75 49.25C16.2647 49.25 14.25 51.2647 14.25 53.75C14.25 56.2353 16.2647 58.25 18.75 58.25Z" fill="#C833EE"/>
<path opacity="0.9" d="M18.75 32.25C21.2353 32.25 23.25 30.2353 23.25 27.75C23.25 25.2647 21.2353 23.25 18.75 23.25C16.2647 23.25 14.25 25.2647 14.25 27.75C14.25 30.2353 16.2647 32.25 18.75 32.25Z" fill="#B833F6"/>
<path d="M40.75 31.75V19.25" stroke="url(#paint2_linear_2020_200)" stroke-opacity="0.9" stroke-width="1.2"/>
<path d="M48.25 35.75L58.75 30.75" stroke="url(#paint3_linear_2020_200)" stroke-opacity="0.9" stroke-width="1.2"/>
<path d="M48.25 45.75L58.75 50.75" stroke="url(#paint4_linear_2020_200)" stroke-opacity="0.9" stroke-width="1.2"/>
<path d="M33.25 45.75L22.75 50.75" stroke="url(#paint5_linear_2020_200)" stroke-opacity="0.9" stroke-width="1.2"/>
<path d="M33.25 35.75L22.75 30.75" stroke="url(#paint6_linear_2020_200)" stroke-opacity="0.9" stroke-width="1.2"/>
<path d="M40.75 14.75L62.75 27.75" stroke="#F6339A" stroke-opacity="0.35" stroke-width="0.7"/>
<path d="M62.75 27.75V53.75" stroke="#D833CC" stroke-opacity="0.35" stroke-width="0.7"/>
<path d="M62.75 53.75L40.75 66.75" stroke="#B833F6" stroke-opacity="0.35" stroke-width="0.7"/>
<path d="M40.75 66.75L18.75 53.75" stroke="#F6339A" stroke-opacity="0.35" stroke-width="0.7"/>
<path d="M18.75 53.75V27.75" stroke="#D833CC" stroke-opacity="0.35" stroke-width="0.7"/>
<path d="M18.75 27.75L40.75 14.75" stroke="#B833F6" stroke-opacity="0.35" stroke-width="0.7"/>
<path d="M40.7502 16.5499C41.7443 16.5499 42.5502 15.7441 42.5502 14.75C42.5502 13.7558 41.7443 12.95 40.7502 12.95C39.7561 12.95 38.9502 13.7558 38.9502 14.75C38.9502 15.7441 39.7561 16.5499 40.7502 16.5499Z" fill="white" fill-opacity="0.7"/>
<path d="M62.7502 55.55C63.7443 55.55 64.5502 54.7441 64.5502 53.75C64.5502 52.7558 63.7443 51.95 62.7502 51.95C61.7561 51.95 60.9502 52.7558 60.9502 53.75C60.9502 54.7441 61.7561 55.55 62.7502 55.55Z" fill="white" fill-opacity="0.5"/>
<path d="M18.7502 29.5499C19.7443 29.5499 20.5502 28.7441 20.5502 27.75C20.5502 26.7558 19.7443 25.95 18.7502 25.95C17.7561 25.95 16.9502 26.7558 16.9502 27.75C16.9502 28.7441 17.7561 29.5499 18.7502 29.5499Z" fill="white" fill-opacity="0.5"/>
<path d="M40.75 49.75V62.25" stroke="url(#paint7_linear_2020_200)" stroke-opacity="0.9" stroke-width="1.2"/>
<defs>
<linearGradient id="paint0_linear_2020_200" x1="0.75" y1="0.75" x2="80.75" y2="80.75" gradientUnits="userSpaceOnUse">
<stop stop-color="#F6339A"/>
<stop offset="1" stop-color="#B833F6"/>
</linearGradient>
<linearGradient id="paint1_linear_2020_200" x1="31.75" y1="31.75" x2="49.75" y2="49.75" gradientUnits="userSpaceOnUse">
<stop stop-color="#F6339A"/>
<stop offset="1" stop-color="#B833F6"/>
</linearGradient>
<linearGradient id="paint2_linear_2020_200" x1="-nan" y1="-nan" x2="-nan" y2="-nan" gradientUnits="userSpaceOnUse">
<stop stop-color="#F6339A"/>
<stop offset="1" stop-color="#B833F6"/>
</linearGradient>
<linearGradient id="paint3_linear_2020_200" x1="48.25" y1="30.75" x2="52.1317" y2="38.9016" gradientUnits="userSpaceOnUse">
<stop stop-color="#F6339A"/>
<stop offset="1" stop-color="#B833F6"/>
</linearGradient>
<linearGradient id="paint4_linear_2020_200" x1="48.25" y1="45.75" x2="52.1317" y2="53.9016" gradientUnits="userSpaceOnUse">
<stop stop-color="#F6339A"/>
<stop offset="1" stop-color="#B833F6"/>
</linearGradient>
<linearGradient id="paint5_linear_2020_200" x1="22.75" y1="45.75" x2="26.6317" y2="53.9016" gradientUnits="userSpaceOnUse">
<stop stop-color="#F6339A"/>
<stop offset="1" stop-color="#B833F6"/>
</linearGradient>
<linearGradient id="paint6_linear_2020_200" x1="22.75" y1="30.75" x2="26.6317" y2="38.9016" gradientUnits="userSpaceOnUse">
<stop stop-color="#F6339A"/>
<stop offset="1" stop-color="#B833F6"/>
</linearGradient>
<linearGradient id="paint7_linear_2020_200" x1="-nan" y1="-nan" x2="-nan" y2="-nan" gradientUnits="userSpaceOnUse">
<stop stop-color="#F6339A"/>
<stop offset="1" stop-color="#B833F6"/>
</linearGradient>
</defs>
</svg>
